<?xml version="1.0" encoding="utf-8"?>
<!-- Generator: Adobe Illustrator 22.1.0, SVG Export Plug-In . SVG Version: 6.00 Build 0)  -->
<svg version="1.1" id="Layer_1" xmlns="http://www.w3.org/2000/svg" xmlns:xlink="http://www.w3.org/1999/xlink" x="0px" y="0px"
	 viewBox="0 0 50 50" style="enable-background:new 0 0 50 50;" xml:space="preserve">
<style type="text/css">
	.st0{fill:#FF402C;}
</style>
<g>
	<g>
		<path class="st0" d="M16.6,36.5h-1c-1.8,0-3.3-1.5-3.3-3.3v-5.2l1.2,1.2c0.1,0.1,0.3,0.2,0.5,0.2s0.4-0.1,0.5-0.2
			c0.3-0.3,0.3-0.8,0-1.1l-2.5-2.5c-0.1-0.1-0.2-0.1-0.2-0.2c-0.2-0.1-0.4-0.1-0.6,0c-0.1,0-0.2,0.1-0.2,0.2l-2.5,2.5
			c-0.3,0.3-0.3,0.8,0,1.1s0.8,0.3,1.1,0l1.2-1.2v5.2c0,2.6,2.1,4.8,4.8,4.8h1c0.4,0,0.8-0.3,0.8-0.8S17,36.5,16.6,36.5z"/>
		<g>
			<path class="st0" d="M24.6,38h-5c-0.4,0-0.8-0.3-0.8-0.8s0.3-0.8,0.8-0.8h5c0.4,0,0.8,0.3,0.8,0.8S25,38,24.6,38z"/>
		</g>
	</g>
	<g>
		<path class="st0" d="M41.1,20.7c-0.3-0.3-0.8-0.3-1.1,0l-1.2,1.2v-5.2c0-2.6-2.1-4.8-4.8-4.8h-1c-0.4,0-0.8,0.3-0.8,0.8
			s0.3,0.8,0.8,0.8h1c1.8,0,3.3,1.5,3.3,3.3v5.2l-1.2-1.2c-0.3-0.3-0.8-0.3-1.1,0s-0.3,0.8,0,1.1l2.5,2.5c0.1,0.1,0.2,0.1,0.2,0.2
			c0.1,0,0.2,0.1,0.3,0.1s0.2,0,0.3-0.1c0.1,0,0.2-0.1,0.2-0.2l2.5-2.5C41.4,21.5,41.4,21,41.1,20.7z"/>
		<g>
			<path class="st0" d="M30.1,13.5h-5c-0.4,0-0.8-0.3-0.8-0.8s0.3-0.8,0.8-0.8h5c0.4,0,0.8,0.3,0.8,0.8S30.5,13.5,30.1,13.5z"/>
		</g>
	</g>
	<g>
		<g>
			<path class="st0" d="M12.1,23.5c-5.7,0-10.3-4.6-10.3-10.3S6.4,3,12.1,3s10.3,4.6,10.3,10.3S17.8,23.5,12.1,23.5z M12.1,4.5
				c-4.8,0-8.8,3.9-8.8,8.8S7.3,22,12.1,22s8.8-3.9,8.8-8.8S16.9,4.5,12.1,4.5z"/>
		</g>
		<g>
			<path class="st0" d="M12.8,17.1v-1.2H9.6c-0.4,0-0.7-0.1-0.9-0.3c-0.2-0.2-0.3-0.4-0.3-0.7c0-0.1,0-0.2,0-0.2
				c0-0.1,0.1-0.2,0.1-0.3c0.1-0.1,0.1-0.2,0.2-0.3s0.1-0.2,0.2-0.3l3.4-4.5c0.2-0.3,0.4-0.5,0.5-0.6c0.1-0.1,0.3-0.2,0.5-0.2
				c0.6,0,1,0.4,1,1.1v4.9h0.3c0.3,0,0.6,0,0.8,0.1c0.2,0.1,0.3,0.3,0.3,0.6c0,0.2-0.1,0.4-0.2,0.5c-0.2,0.1-0.4,0.2-0.7,0.2h-0.4
				v1.2c0,0.3-0.1,0.6-0.2,0.7C14.1,18,13.9,18,13.6,18c-0.2,0-0.4-0.1-0.6-0.2C12.9,17.6,12.8,17.4,12.8,17.1z M10.1,14.5h2.7v-3.7
				L10.1,14.5z"/>
		</g>
	</g>
	<g>
		<g>
			<path class="st0" d="M37.9,47c-5.7,0-10.3-4.6-10.3-10.3s4.6-10.3,10.3-10.3s10.3,4.6,10.3,10.3S43.6,47,37.9,47z M37.9,28
				c-4.8,0-8.8,3.9-8.8,8.8s3.9,8.8,8.8,8.8s8.8-3.9,8.8-8.8S42.7,28,37.9,28z"/>
		</g>
		<g>
			<g>
				<path class="st0" d="M32.1,40.4v-7.3c0-0.4,0.1-0.7,0.3-0.9c0.2-0.2,0.4-0.3,0.7-0.3c0.3,0,0.5,0.1,0.7,0.3
					c0.2,0.2,0.3,0.5,0.3,0.9v7.3c0,0.4-0.1,0.7-0.3,0.9c-0.2,0.2-0.4,0.3-0.7,0.3c-0.3,0-0.5-0.1-0.7-0.3S32.1,40.8,32.1,40.4z"/>
			</g>
			<g>
				<path class="st0" d="M37.5,33.2l2.1,6.2l2.1-6.3c0.1-0.3,0.2-0.6,0.2-0.7c0.1-0.1,0.1-0.2,0.3-0.3s0.3-0.2,0.5-0.2
					c0.2,0,0.3,0,0.4,0.1c0.1,0.1,0.2,0.2,0.3,0.3c0.1,0.1,0.1,0.3,0.1,0.4c0,0.1,0,0.2,0,0.3c0,0.1-0.1,0.2-0.1,0.3
					c0,0.1-0.1,0.2-0.1,0.3l-2.3,6.1c-0.1,0.2-0.2,0.5-0.2,0.7c-0.1,0.2-0.2,0.4-0.3,0.6c-0.1,0.2-0.2,0.3-0.4,0.4
					c-0.2,0.1-0.4,0.2-0.6,0.2s-0.5,0-0.6-0.1s-0.3-0.2-0.4-0.4s-0.2-0.3-0.3-0.6S38.1,40,38,39.8l-2.2-6c0-0.1-0.1-0.2-0.1-0.3
					c0-0.1-0.1-0.2-0.1-0.3c0-0.1,0-0.2,0-0.3c0-0.2,0.1-0.4,0.3-0.6c0.2-0.2,0.4-0.3,0.7-0.3c0.3,0,0.5,0.1,0.7,0.3
					C37.2,32.4,37.4,32.7,37.5,33.2z"/>
			</g>
		</g>
	</g>
</g>
</svg>
